# xmcd
#
# Track frame offsets:
#	150
#	14679
#	24030
#	46100
#	63848
#	100514
#	115523
#	129789
#	152388
#	170655
#	197887
#
# Disc length: 2968 seconds
#
# Revision: 1
# Processed by: cddbd v1.5.2PL0 Copyright (c) Steve Scherf et al.
# Submitted via: audiograbber 1.83.01
#
DISCID=750b960b
DTITLE=Eric Clapton  - Behind the Sun
DYEAR=1984
DGENRE=Blues
TTITLE0=She´s waiting
TTITLE1=See what Love can do
TTITLE2=Same old Blues
TTITLE3=Knock on Wood
TTITLE4=Something´s happening
TTITLE5=Forever Man
TTITLE6=It all depends
TTITLE7=Tangeled in Love
TTITLE8=Never make you cry
TTITLE9=Just like a Prisoner
TTITLE10=Behind the Sun
EXTD=
EXTT0=
EXTT1=
EXTT2=
EXTT3=
EXTT4=
EXTT5=
EXTT6=
EXTT7=
EXTT8=
EXTT9=
EXTT10=
PLAYORDER=
